<svg width="118" height="144" viewBox="0 0 118 144" fill="none" xmlns="http://www.w3.org/2000/svg">
<path d="M110.165 122.525C109.84 122.782 109.504 123.028 109.166 123.257C109.085 123.311 108.983 123.281 108.937 123.19C108.891 123.099 108.917 122.982 108.999 122.927C109.388 122.663 109.773 122.377 110.144 122.076C110.144 122.076 110.145 122.075 110.146 122.075C110.222 122.015 110.325 122.035 110.377 122.12C110.43 122.206 110.411 122.326 110.335 122.388C110.278 122.434 110.222 122.48 110.165 122.525ZM112.068 120.762C112 120.816 111.908 120.807 111.851 120.738C111.788 120.661 111.792 120.54 111.86 120.466C112.191 120.11 112.512 119.734 112.816 119.347C112.878 119.267 112.984 119.26 113.053 119.331C113.121 119.401 113.126 119.522 113.063 119.601C112.753 119.996 112.425 120.38 112.088 120.743C112.082 120.751 112.075 120.757 112.068 120.762ZM114.417 117.612C114.362 117.656 114.287 117.66 114.228 117.615C114.152 117.556 114.132 117.437 114.186 117.349C114.441 116.919 114.684 116.472 114.906 116.021C114.951 115.928 115.054 115.894 115.135 115.945C115.215 115.996 115.243 116.112 115.197 116.206C114.97 116.666 114.723 117.122 114.462 117.561C114.449 117.581 114.434 117.599 114.417 117.612ZM116.108 113.958C116.063 113.994 116.006 114.004 115.952 113.981C115.866 113.944 115.824 113.832 115.858 113.733C116.024 113.252 116.174 112.757 116.303 112.261C116.33 112.159 116.423 112.099 116.512 112.128C116.601 112.157 116.651 112.263 116.625 112.365C116.492 112.872 116.339 113.378 116.17 113.869C116.157 113.907 116.135 113.937 116.108 113.958ZM117.048 109.979C117.015 110.006 116.972 110.019 116.929 110.012C116.838 109.997 116.775 109.901 116.789 109.795C116.857 109.286 116.907 108.766 116.938 108.251C116.944 108.146 117.024 108.064 117.116 108.069C117.209 108.075 117.278 108.165 117.272 108.271C117.241 108.797 117.19 109.327 117.12 109.848C117.113 109.903 117.086 109.949 117.048 109.979ZM117.196 105.873C117.173 105.892 117.145 105.904 117.114 105.907C117.022 105.916 116.941 105.838 116.935 105.733C116.903 105.219 116.852 104.701 116.783 104.194C116.768 104.09 116.831 103.99 116.922 103.972C117.014 103.955 117.1 104.024 117.114 104.129C117.185 104.646 117.237 105.175 117.27 105.7C117.274 105.77 117.244 105.835 117.196 105.873ZM116.548 101.846C116.534 101.857 116.519 101.865 116.502 101.872C116.414 101.904 116.32 101.849 116.293 101.747C116.163 101.256 116.013 100.767 115.847 100.291C115.812 100.194 115.854 100.081 115.941 100.04C116.027 99.9992 116.124 100.045 116.159 100.144C116.329 100.629 116.482 101.129 116.615 101.63C116.636 101.712 116.607 101.799 116.548 101.846ZM115.132 98.0981C115.128 98.1009 115.124 98.1037 115.121 98.1059C115.04 98.1602 114.938 98.1299 114.892 98.0384C114.695 97.6467 114.483 97.2595 114.26 96.8878C114.23 96.8384 114.201 96.7885 114.17 96.7395C114.118 96.6532 114.137 96.5336 114.213 96.4716C114.213 96.4711 114.214 96.4706 114.214 96.4702C114.291 96.4097 114.394 96.43 114.446 96.5159C114.477 96.5663 114.508 96.6168 114.538 96.6677C114.765 97.0478 114.982 97.4432 115.183 97.8432C115.227 97.9301 115.204 98.0409 115.132 98.0981ZM113.014 94.8221C112.947 94.8756 112.854 94.8664 112.797 94.7968C112.493 94.4241 112.17 94.0613 111.838 93.7184C111.77 93.6482 111.765 93.5266 111.828 93.4473C111.891 93.3685 111.997 93.3609 112.065 93.4311C112.404 93.7814 112.734 94.1517 113.044 94.5318C113.107 94.6088 113.103 94.7302 113.034 94.8032C113.028 94.8104 113.021 94.8165 113.014 94.8221ZM110.307 92.1759C110.251 92.2201 110.176 92.2236 110.117 92.1784C109.746 91.8913 109.361 91.6204 108.971 91.3722C108.89 91.3212 108.862 91.2043 108.909 91.1114C108.955 91.0186 109.057 90.9847 109.138 91.0362C109.536 91.2893 109.929 91.5663 110.308 91.8594C110.385 91.9181 110.404 92.0375 110.351 92.1255C110.339 92.1458 110.324 92.1624 110.307 92.1759Z" fill="#959595"/>
<path d="M27.4293 143.468H27.426L16.5782 143.328C12.9505 143.28 10 140.284 10 136.648V120.232C10 120.104 10.1035 120 10.2315 120C10.3595 120 10.4629 120.104 10.4629 120.232V136.648C10.4629 140.032 13.2085 142.82 16.5842 142.864L27.432 143.004C27.56 143.005 27.6621 143.111 27.6608 143.239C27.6595 143.365 27.556 143.468 27.4293 143.468Z" fill="#E5E5E5"/>
<path fill-rule="evenodd" clip-rule="evenodd" d="M8.51427 40.0382C8.40287 40.0941 8.33907 40.2149 8.35576 40.3389L8.8292 43.8758C7.5522 44.9421 6.43614 46.2199 5.54176 47.6809L1.98322 47.7192C1.8585 47.7208 1.74818 47.8013 1.70923 47.9196L0.365252 51.9806C0.325668 52.0991 0.366484 52.2298 0.465139 52.306L3.29388 54.473C3.14021 56.1811 3.27287 57.875 3.66063 59.4961L1.17305 62.0463C1.08615 62.1358 1.06513 62.2703 1.12125 62.3826L3.03855 66.2099C3.09448 66.3215 3.21515 66.3856 3.33889 66.369L6.86842 65.8991C7.93418 67.1799 9.21093 68.2997 10.6702 69.1976L10.7131 72.7637C10.7149 72.8887 10.7954 72.9993 10.9135 73.0385L14.9684 74.3901C15.0867 74.4299 15.2171 74.3892 15.293 74.2904L17.4524 71.459C19.1573 71.6151 20.8478 71.4843 22.4653 71.0978L25.0137 73.5933C25.1032 73.6805 25.2381 73.7015 25.3495 73.6456L29.167 71.7294C29.2784 71.6735 29.3422 71.5527 29.3255 71.4287L28.8521 67.8918C30.1291 66.8256 31.2451 65.5478 32.1395 64.0868L35.6987 64.0483C35.8234 64.0467 35.9337 63.9662 35.9727 63.8479L37.3166 59.7869C37.3562 59.6684 37.3154 59.5377 37.2161 59.4617L34.3874 57.2946C34.541 55.5866 34.4084 53.8927 34.0206 52.2716L36.5082 49.7214C36.5951 49.6318 36.6159 49.4967 36.56 49.385L34.6427 45.5578C34.5868 45.4461 34.4661 45.382 34.3424 45.3986L30.8128 45.8685C29.7471 44.5878 28.4703 43.468 27.011 42.57L26.9682 39.004C26.9664 38.879 26.8859 38.7684 26.7677 38.7292L22.7129 37.3775C22.5946 37.3377 22.4641 37.3785 22.3883 37.4772L20.2289 40.3087C18.5239 40.1526 16.8334 40.2834 15.216 40.6699L12.6675 38.1743C12.578 38.0871 12.4438 38.0659 12.3318 38.122L8.51427 40.0382ZM22.6425 68.1492C29.791 66.0306 33.8685 58.5181 31.7499 51.3696C29.6312 44.2211 22.1187 40.1436 14.9702 42.2622C7.82173 44.3809 3.74422 51.8934 5.86285 59.0419C7.98148 66.1904 15.494 70.2679 22.6425 68.1492Z" fill="#F1F1F1"/>
<path fill-rule="evenodd" clip-rule="evenodd" d="M103.079 0.454784C103.005 0.468079 102.948 0.526573 102.936 0.601021L102.606 2.72012C101.688 3.11629 100.826 3.66202 100.061 4.35133L98.0037 3.76572C97.9314 3.74511 97.8545 3.77303 97.8114 3.83418L96.3437 5.94465C96.3006 6.00646 96.302 6.08822 96.3457 6.14938L97.6058 7.88162C97.2258 8.83947 97.0129 9.83853 96.9592 10.8389L95.0903 11.8839C95.0247 11.9204 94.9895 11.9949 95.0028 12.0686L95.4537 14.6012C95.467 14.675 95.5254 14.7328 95.5996 14.7441L97.7139 15.0758C98.1092 15.9958 98.6536 16.8592 99.3414 17.6263L98.7571 19.6882C98.7365 19.7607 98.7644 19.8378 98.8254 19.881L100.931 21.352C100.993 21.3952 101.074 21.3939 101.135 21.35L102.864 20.0871C103.819 20.468 104.816 20.6813 105.814 20.7352L106.857 22.6083C106.893 22.6741 106.967 22.7094 107.041 22.6961L109.568 22.2441C109.641 22.2308 109.699 22.1723 109.71 22.0978L110.041 19.9787C110.959 19.5826 111.821 19.0368 112.586 18.3475L114.643 18.9331C114.715 18.9537 114.792 18.9258 114.835 18.8647L116.303 16.7542C116.346 16.6924 116.345 16.6106 116.301 16.5495L115.041 14.8172C115.421 13.8594 115.634 12.8603 115.688 11.8599L117.556 10.815C117.622 10.7784 117.657 10.704 117.644 10.6302L117.193 8.09765C117.18 8.02387 117.121 7.96604 117.047 7.95474L114.933 7.62304C114.538 6.70308 113.993 5.83962 113.305 5.07254L113.89 3.01061C113.91 2.93815 113.882 2.86104 113.821 2.81784L111.716 1.34683C111.654 1.30362 111.573 1.30495 111.512 1.34882L109.783 2.61178C108.828 2.2309 107.831 2.01752 106.833 1.96368L105.79 0.0905222C105.754 0.0247156 105.679 -0.0105146 105.606 0.00277965L103.079 0.454784ZM106.143 19.9092C110.561 19.9092 114.143 16.3275 114.143 11.9092C114.143 7.4909 110.561 3.90918 106.143 3.90918C101.724 3.90918 98.1426 7.4909 98.1426 11.9092C98.1426 16.3275 101.724 19.9092 106.143 19.9092Z" fill="#F1F1F1"/>
<path d="M14 10C14 8.89543 14.8954 8 16 8H106C107.105 8 108 8.89543 108 10V137C108 138.105 107.105 139 106 139H16C14.8954 139 14 138.105 14 137V10Z" fill="url(#paint0_linear_1041_1461)"/>
<path d="M15 11C15 9.89543 15.8954 9 17 9H105C106.105 9 107 9.89543 107 11V136C107 137.105 106.105 138 105 138H17C15.8954 138 15 137.105 15 136V11Z" fill="#F5F5F5"/>
<path d="M26.0001 72H37C37.5523 72 38 72.4477 38 73V82.7608C38 83.3059 37.5634 83.7506 37.0184 83.7607L26.0188 83.9627C25.4594 83.973 25.0004 83.5224 25.0004 82.9629L25.0001 73C25 72.4477 25.4478 72 26.0001 72Z" stroke="#E5E5E5" stroke-width="2"/>
<path d="M26.0001 92H37C37.5523 92 38 92.4477 38 93V102.761C38 103.306 37.5634 103.751 37.0184 103.761L26.0188 103.963C25.4594 103.973 25.0004 103.522 25.0004 102.963L25.0001 93C25 92.4477 25.4478 92 26.0001 92Z" stroke="#E5E5E5" stroke-width="2"/>
<path d="M26.0001 112H37C37.5523 112 38 112.448 38 113V122.761C38 123.306 37.5634 123.751 37.0184 123.761L26.0188 123.963C25.4594 123.973 25.0004 123.522 25.0004 122.963L25.0001 113C25 112.448 25.4478 112 26.0001 112Z" stroke="white" stroke-width="2"/>
<circle cx="85.5" cy="32.5" r="9.5" fill="white"/>
<circle cx="85.5" cy="32.5" r="6.5" fill="#F1F1F1"/>
<path d="M29.9093 101.814C30.1659 102.062 30.5819 102.062 30.8385 101.814L37.8076 95.0833C38.0641 94.8355 38.0641 94.4337 37.8076 94.1859C37.551 93.938 37.1349 93.938 36.8783 94.1859L30.8385 100.019C30.5819 100.267 30.1659 100.267 29.9093 100.019L27.1217 97.3269C26.8651 97.079 26.449 97.079 26.1924 97.3269C25.9359 97.5747 25.9359 97.9765 26.1924 98.2243L29.9093 101.814Z" fill="#E5E5E5"/>
<rect x="23" y="28" width="32" height="3" rx="1" fill="#C4C4C4"/>
<rect x="23" y="28" width="32" height="3" rx="1" fill="url(#paint1_linear_1041_1461)"/>
<rect x="23" y="58" width="32" height="3" rx="1" fill="#C4C4C4"/>
<rect x="23" y="58" width="32" height="3" rx="1" fill="url(#paint2_linear_1041_1461)"/>
<rect x="47" y="76" width="43" height="4" rx="1" fill="#C4C4C4"/>
<rect x="47" y="76" width="43" height="4" rx="1" fill="url(#paint3_linear_1041_1461)"/>
<rect x="47" y="96" width="33" height="4" rx="1" fill="#C4C4C4"/>
<rect x="47" y="96" width="33" height="4" rx="1" fill="url(#paint4_linear_1041_1461)"/>
<rect x="23" y="34" width="20" height="3" rx="1" fill="white"/>
<rect x="23" y="52" width="67" height="3" rx="1" fill="white"/>
<rect x="47" y="116" width="48" height="4" rx="1" fill="white"/>
<defs>
<linearGradient id="paint0_linear_1041_1461" x1="13" y1="5" x2="164.776" y2="109.892" gradientUnits="userSpaceOnUse">
<stop stop-color="#E0E0E0"/>
<stop offset="1" stop-color="white"/>
</linearGradient>
<linearGradient id="paint1_linear_1041_1461" x1="23" y1="29.5" x2="23.9804" y2="23.9855" gradientUnits="userSpaceOnUse">
<stop stop-color="#E0E0E0"/>
<stop offset="1" stop-color="#EBEBEB"/>
</linearGradient>
<linearGradient id="paint2_linear_1041_1461" x1="23" y1="59.5" x2="23.9804" y2="53.9855" gradientUnits="userSpaceOnUse">
<stop stop-color="#E0E0E0"/>
<stop offset="1" stop-color="#EBEBEB"/>
</linearGradient>
<linearGradient id="paint3_linear_1041_1461" x1="47" y1="78.0001" x2="48.2976" y2="70.6438" gradientUnits="userSpaceOnUse">
<stop stop-color="#E0E0E0"/>
<stop offset="1" stop-color="#EBEBEB"/>
</linearGradient>
<linearGradient id="paint4_linear_1041_1461" x1="47" y1="98.0001" x2="48.656" y2="90.7956" gradientUnits="userSpaceOnUse">
<stop stop-color="#E0E0E0"/>
<stop offset="1" stop-color="#EBEBEB"/>
</linearGradient>
</defs>
</svg>